# xmcd
#
# Track frame offsets:
#	183
#	14938
#	25443
#	40375
#	63243
#	81335
#	93430
#	109740
#	121790
#	135733
#	150620
#	167555
#
# Disc length: 2423 seconds
#
# Revision: 0
# Processed by: cddbd v1.5.2PL0 Copyright (c) Steve Scherf et al.
# Submitted via: audiograbber 1.83.01
#
DISCID=9d09750c
DTITLE=Marcia Ball and Angela Strehli and Lou Ann Barton - Dreams Come True
DYEAR=1990
DGENRE=Blues
TTITLE0=A Fool In Love
TTITLE1=Good Rockin' Daddy
TTITLE2=It Hurts To Be In Love
TTITLE3=Love, Sweet Love
TTITLE4=Gonna Make It
TTITLE5=You Can If You Think You Can
TTITLE6=I Idolize You
TTITLE7=Dreams Come True
TTITLE8=Bad Thing
TTITLE9=Turn The Lock On Love
TTITLE10=Something's Got A Hold On Me
TTITLE11=Snake Dance
EXTD=
EXTT0=
EXTT1=
EXTT2=
EXTT3=
EXTT4=
EXTT5=
EXTT6=
EXTT7=
EXTT8=
EXTT9=
EXTT10=
EXTT11=
PLAYORDER=
